<?xml version="1.0" encoding="utf-8"?>
<!-- Generator: Adobe Illustrator 21.0.2, SVG Export Plug-In . SVG Version: 6.00 Build 0)  -->
<svg version="1.1" id="Layer_1" xmlns="http://www.w3.org/2000/svg" xmlns:xlink="http://www.w3.org/1999/xlink" x="0px" y="0px"
	 viewBox="0 0 2115 286" style="enable-background:new 0 0 2115 286;" xml:space="preserve">
<style type="text/css">
	.st0{fill:url(#SVGID_1_);}
	.st1{fill:url(#SVGID_2_);}
	.st2{fill:#8179FB;}
	.st3{fill:url(#SVGID_3_);}
	.st4{fill:#7D75FB;}
</style>
<g>
	<linearGradient id="SVGID_1_" gradientUnits="userSpaceOnUse" x1="-1.6089" y1="143.0383" x2="2116.6113" y2="143.0383">
		<stop  offset="0" style="stop-color:#9590F7"/>
		<stop  offset="0.3499" style="stop-color:#8B85F9"/>
		<stop  offset="1" style="stop-color:#7970FC"/>
	</linearGradient>
	<path class="st0" d="M2116.6,0.1V286h-82.2c-15.8-2.7-28.7-13.7-34.2-28.3c-0.7-2.8-1.4-5.6-2.3-8.4
		c-13.7-44.4-51.9-78.3-98.9-84.7c-2.6-0.3-5.3-0.6-8-0.8c-0.8-0.1-1.5-0.1-2.3-0.1c-0.8,0-1.5-0.1-2.3-0.1c-0.8,0-1.5,0-2.3,0
		c-23.5-0.3-45.4,6.2-64,17.6v0c-8.2,5-15.7,10.9-22.4,17.7c-18.5,18.5-26.4,44.4-46.4,61.8c-18.6,16.3-42.9,25.3-67.6,25.3
		c-41.9,0-77.9-25-94-61c-1.5-4.5-3.1-8.9-4.9-13.3C1556.7,142.3,1489,93,1409.7,93c-26.4,0-51.5,5.4-74.4,15.1
		c-22.5,9.6-42.8,23.4-59.9,40.5c-19.6,19.7-35,43.6-44.5,70.3c-2.1,6-4,12.1-5.5,18.3c-12.5,28.7-41.2,48.8-74.5,48.8H285.5
		c-8.7,0-16.7-2.8-23.2-7.5c-7.7-5.7-12.9-14.2-14.9-23.6c-0.3-1.4-0.6-2.8-1-4.2c-6-24-18.2-45.5-34.8-62.8
		c-25.4-26.4-61.1-42.9-100.6-42.9c-38.6,0-73.5,15.6-98.7,40.9c-5,5-9.6,10.4-13.8,16.1V0.1H2116.6z"/>
	<linearGradient id="SVGID_2_" gradientUnits="userSpaceOnUse" x1="211.5939" y1="236.8933" x2="714.6039" y2="236.8933">
		<stop  offset="0" style="stop-color:#867FFA"/>
		<stop  offset="1" style="stop-color:#7D75FB"/>
	</linearGradient>
	<path class="st1" d="M714.6,286H285.5c-8.7,0-16.7-2.8-23.2-7.5c-7.7-5.7-12.9-14.2-15-23.6c-0.3-1.4-0.6-2.8-1-4.2
		c-6-24-18.2-45.5-34.8-62.8h355c33.4,0,66.2,10,93.5,29.2C680.8,231.7,701.2,253.5,714.6,286z"/>
	<path class="st2" d="M886.4,0.1c-33.7,84.5-116.3,144.2-212.8,144.2S494.5,84.6,460.8,0.1H886.4z"/>
	<linearGradient id="SVGID_3_" gradientUnits="userSpaceOnUse" x1="743.6011" y1="143.0383" x2="2116.6113" y2="143.0383">
		<stop  offset="0" style="stop-color:#7F77FB;stop-opacity:0"/>
		<stop  offset="0.1013" style="stop-color:#7F77FB;stop-opacity:1.048741e-02"/>
		<stop  offset="0.2672" style="stop-color:#7F77FB"/>
		<stop  offset="0.7" style="stop-color:#8179FB"/>
		<stop  offset="1" style="stop-color:#867FFA"/>
	</linearGradient>
	<path class="st3" d="M2116.6,0.1V286h-82.2c-15.8-2.7-28.7-13.7-34.2-28.3c-0.7-2.8-1.4-5.6-2.3-8.4
		c-13.7-44.4-51.9-78.3-98.9-84.7c-2.6-0.3-5.3-0.6-8-0.8c-0.8,0-1.5-0.1-2.3-0.1c-0.8,0-1.5-0.1-2.3-0.1c-0.8,0-1.5,0-2.3,0
		c-23.5-0.3-45.4,6.2-64,17.6v0c-8.2,5-15.7,10.9-22.4,17.7c-18.5,18.5-26.4,44.4-46.4,61.8c-18.6,16.3-42.9,25.3-67.6,25.3
		c-41.9,0-77.9-25-94-61c-1.5-4.5-3.1-8.9-4.9-13.3C1556.7,142.3,1489,93,1409.7,93c-26.4,0-51.5,5.4-74.4,15.1
		c-34.7-39.3-85.1-64.2-141.4-64.2c-52.4,0-99.9,21.2-134.2,55.6c-19.6,19.7-35,43.6-44.5,70.3c-2.1,6-4,12.1-5.5,18.3
		c-12.5,28.7-41.2,48.8-74.5,48.8H743.6V0.1H2116.6z"/>
	<path class="st4" d="M2116.6,0.1V286h-82.2c-15.8-2.7-28.7-13.7-34.2-28.3c-0.7-2.8-1.4-5.6-2.3-8.4c-15.1-49-60-85.2-113.7-85.8
		c-23.5-0.3-45.4,6.2-64,17.6V96.2c0-23.9,6.4-47.4,19.1-67.6c6.2-9.9,14.3-19.8,25.1-28.5H2116.6z"/>
</g>
</svg>
